# xmcd
# 
# Track frame offsets:
#     150
#     17247
#     28604
#     45942
#     59979
#     79009
#     93938
#     118775
#     137132
#     157547
#     168101
#     183946
#     197395
# 
# Disc length: 2814
# 
# Revision: 0
# Processed by: cddbd v1.5.2PL0 Copyright (c) Steve Scherf et al.
# Submitted via: fre:ac v1.0.27
# 
DISCID=990afc0d
DTITLE=Laïs - Dorothea
DYEAR=0
DGENRE=Folk
TTITLE0=Doran
TTITLE1=Belle
TTITLE2=(Houd uw) Kanneke
TTITLE3=Benedetta
TTITLE4=Tina Vieri
TTITLE5=Le renard et la belette
TTITLE6=Les douze mois
TTITLE7=De valse zeeman
TTITLE8=Marider
TTITLE9=Comme au sein de la nuit
TTITLE10=Dorothea
TTITLE11=Klaas
TTITLE12=De wanhoop
EXTD=
EXTT0=
EXTT1=
EXTT2=
EXTT3=
EXTT4=
EXTT5=
EXTT6=
EXTT7=
EXTT8=
EXTT9=
EXTT10=
EXTT11=
EXTT12=
PLAYORDER=
